<?xml version="1.0" encoding="UTF-8"?>
<svg version="1.1" xmlns="http://www.w3.org/2000/svg" width="300" height="240">
<path d="M0 0 C99 0 198 0 300 0 C300 79.2 300 158.4 300 240 C201 240 102 240 0 240 C0 160.8 0 81.6 0 0 Z " fill="#E8FCFB" transform="translate(0,0)"/>
<path d="M0 0 C0.66 0.515625 1.32 1.03125 2 1.5625 C4.86928054 3.62479539 7.30685327 3.46533444 10.7734375 3.375 C13.28823491 3.11242339 13.28823491 3.11242339 16 0.9375 C19.68667603 -1.44347827 21.58283857 -1.37391709 25.80859375 -0.6875 C29.43299261 0.44956631 31.39159257 2.25782809 34 5 C34 5.66 34 6.32 34 7 C34.99 7.33 35.98 7.66 37 8 C37 10.64 37 13.28 37 16 C36.01 16.33 35.02 16.66 34 17 C33.29788106 18.65204456 32.63028587 20.31923769 32 22 C31.01 22.495 31.01 22.495 30 23 C31.4540625 23.680625 31.4540625 23.680625 32.9375 24.375 C36 26 36 26 37 28 C37.28042286 32.08529957 37.31359145 36.17223534 37.35009766 40.26635742 C37.36663597 41.62525586 37.39389921 42.98406805 37.43212891 44.3425293 C37.48709607 46.30724686 37.50566889 48.27287525 37.5234375 50.23828125 C37.5531665 52.002323 37.5531665 52.002323 37.58349609 53.80200195 C37 57 37 57 35.12939453 59.88330078 C30.59837573 62.94804825 26.76342159 62.70089919 21.40625 62.62890625 C20.38196899 62.63131821 19.35768799 62.63373016 18.30236816 62.63621521 C16.14050417 62.63523734 13.97861495 62.62185809 11.81689453 62.59692383 C8.51117741 62.562616 5.20813408 62.57626888 1.90234375 62.59570312 C-0.20053219 62.58880448 -2.30340125 62.57913193 -4.40625 62.56640625 C-5.39282593 62.57136612 -6.37940186 62.57632599 -7.39587402 62.58143616 C-11.58426588 62.50968743 -14.35879905 62.33050096 -18.12280273 60.39038086 C-20.63120847 57.19623331 -20.63132571 55.22637956 -20.62890625 51.1875 C-20.63131821 50.53676514 -20.63373016 49.88603027 -20.63621521 49.21557617 C-20.63523852 47.84385058 -20.62188652 46.47208472 -20.59692383 45.10058594 C-20.56259495 43.00579409 -20.57626939 40.9152204 -20.59570312 38.8203125 C-20.58880427 37.48435712 -20.57913149 36.14841259 -20.56640625 34.8125 C-20.55552979 33.60207031 -20.54465332 32.39164063 -20.53344727 31.14453125 C-19.90442071 27.43658523 -18.91899786 26.28636075 -16 24 C-15.34 23.67 -14.68 23.34 -14 23 C-16.54604597 19.47618313 -16.54604597 19.47618313 -20 17 C-20 14.03 -20 11.06 -20 8 C-19.01 7.67 -18.02 7.34 -17 7 C-16.29848848 5.6846659 -15.63474075 4.34882408 -15 3 C-10.79631642 -1.93475898 -5.88129517 -1.26258997 0 0 Z " fill="#161614" transform="translate(150,63)"/>
<path d="M0 0 C3.70718433 0.81785983 5.13329673 2.33819937 7.16015625 5.4765625 C7.79480821 8.28716402 7.79055099 10.66534271 7.16015625 13.4765625 C5.36651714 16.2865971 4.1413469 17.98596718 1.16015625 19.4765625 C-3.02128386 19.87103798 -5.14930423 19.92691436 -8.71484375 17.6015625 C-11.62695033 14.68945592 -11.8005268 13.8762848 -12.21484375 9.6640625 C-12.14775486 6.31571686 -11.81923122 5.44464632 -9.90234375 2.4765625 C-6.33149918 0.14458237 -4.19478356 -0.26611315 0 0 Z " fill="#D7485D" transform="translate(174.83984375,65.5234375)"/>
<path d="M0 0 C3.03978021 0.68164768 4.80055419 2.23591662 6.93359375 4.43359375 C8.69622464 7.95885553 7.99972264 11.7284668 6.93359375 15.43359375 C3.92725429 18.30010347 1.95052418 19.26756429 -2.12890625 19.93359375 C-5.77718475 19.31261018 -7.43632312 17.98853165 -10.06640625 15.43359375 C-11.68229004 12.20182618 -11.64092032 8.92744092 -11.06640625 5.43359375 C-8.02199963 0.86698383 -5.28619941 -0.32976291 0 0 Z " fill="#A4C8DF" transform="translate(146.06640625,65.56640625)"/>
<path d="M0 0 C9.27734375 2.734375 9.27734375 2.734375 12 4 C12.33 5.32 12.66 6.64 13 8 C10.03 7.67 7.06 7.34 4 7 C4 8.98 4 10.96 4 13 C6.97 13 9.94 13 13 13 C13 15.64 13 18.28 13 21 C11.39850114 21.67305018 9.79368971 22.33822227 8.1875 23 C7.29417969 23.37125 6.40085937 23.7425 5.48046875 24.125 C3 25 3 25 0 25 C0 16.75 0 8.5 0 0 Z " fill="#1A1A18" transform="translate(115,92)"/>
<path d="M0 0 C1.875 1.1875 1.875 1.1875 3 3 C3.54068562 6.63031776 3.46379841 8.32214079 1.375 11.375 C-1.71186432 13.48706506 -3.3282913 13.61195145 -7 13 C-9.4375 11.4375 -9.4375 11.4375 -11 9 C-11 5.18846501 -10.80074051 2.94902579 -8.3125 0 C-5.12832007 -1.37694267 -3.29075199 -0.980224 0 0 Z " fill="#141515" transform="translate(38,141)"/>
<path d="M0 0 C3.40524375 0.68104875 4.52547983 1.6479153 6.5 4.5 C6.92519574 7.96230815 7.13902633 10.3347167 5.4375 13.4375 C2.38023824 15.1140629 -0.0906288 14.86528977 -3.5 14.5 C-5.4375 13.4375 -5.4375 13.4375 -6.5 11.5 C-7.004958 7.5324729 -7.11854451 5.39345318 -4.8125 2.0625 C-2.5 0.5 -2.5 0.5 0 0 Z " fill="#101212" transform="translate(214.5,139.5)"/>
<path d="M0 0 C1.32 0 2.64 0 4 0 C4 4.62 4 9.24 4 14 C2.68 14 1.36 14 0 14 C-0.33 12.35 -0.66 10.7 -1 9 C-1.99 9.99 -2.98 10.98 -4 12 C-4.66 11.01 -5.32 10.02 -6 9 C-6.33 10.65 -6.66 12.3 -7 14 C-7.99 14 -8.98 14 -10 14 C-10 9.71 -10 5.42 -10 1 C-8.68 1 -7.36 1 -6 1 C-4.25 3 -4.25 3 -3 5 C-2.5875 4.175 -2.175 3.35 -1.75 2.5 C-1.1725 1.675 -0.595 0.85 0 0 Z " fill="#161818" transform="translate(19,140)"/>
<path d="M0 0 C0 1.32 0 2.64 0 4 C-1.98 4 -3.96 4 -6 4 C-6.33 5.32 -6.66 6.64 -7 8 C-6.34 8.33 -5.68 8.66 -5 9 C-5 7.68 -5 6.36 -5 5 C-2.36 5 0.28 5 3 5 C2.64505955 7.62655933 2.27538036 9.57968261 0.8125 11.8125 C-1.93062552 13.60972017 -3.79581126 13.45774125 -7 13 C-10.08884321 10.88658096 -10.87108765 9.68753254 -11.5625 6 C-11 3 -11 3 -8.875 0.5625 C-5.3759721 -1.3391456 -3.76543923 -1.05082025 0 0 Z " fill="#1C1F1F" transform="translate(151,141)"/>
<path d="M0 0 C2.9375 0.75 2.9375 0.75 4.9375 2.75 C5.26765665 5.85347254 5.44281294 7.90781176 3.8125 10.625 C1.05659116 12.27854531 -0.91325452 12.14365568 -4.0625 11.75 C-6 10.6875 -6 10.6875 -7.0625 8.75 C-6.9375 5.1875 -6.9375 5.1875 -6.0625 1.75 C-3.0625 -0.25 -3.0625 -0.25 0 0 Z " fill="#1F2222" transform="translate(110.0625,162.25)"/>
<path d="M0 0 C1.32 0 2.64 0 4 0 C5.75 2.5 5.75 2.5 7 5 C7.33 3.68 7.66 2.36 8 1 C8.99 1 9.98 1 11 1 C11 5.29 11 9.58 11 14 C7 13 7 13 5.25 10.4375 C4.8375 9.633125 4.425 8.82875 4 8 C3.67 9.98 3.34 11.96 3 14 C2.01 14 1.02 14 0 14 C0 9.38 0 4.76 0 0 Z " fill="#0D0E0E" transform="translate(226,140)"/>
<path d="M0 0 C0.66 1.32 1.32 2.64 2 4 C-0.46278801 5.231394 -2.2795055 5.07159196 -5 5 C-4.67 6.65 -4.34 8.3 -4 10 C-3.67 9.01 -3.34 8.02 -3 7 C-0.69 7 1.62 7 4 7 C3.25 11.75 3.25 11.75 1 14 C-5.00458716 14.54587156 -5.00458716 14.54587156 -7.9375 12.9375 C-9.63902633 9.8347167 -9.42519574 7.46230815 -9 4 C-6.40088873 0.24572816 -4.49476261 -0.49941807 0 0 Z " fill="#121313" transform="translate(131,140)"/>
<path d="M0 0 C1.859375 0.1953125 1.859375 0.1953125 4 1 C5.265625 3.1796875 5.265625 3.1796875 6.25 5.875 C6.58515625 6.75929687 6.9203125 7.64359375 7.265625 8.5546875 C8 11 8 11 8 14 C3.545 13.01 3.545 13.01 -1 12 C-1 12.66 -1 13.32 -1 14 C-2.32 14 -3.64 14 -5 14 C-4.54636829 12.41531323 -4.08688548 10.83230076 -3.625 9.25 C-3.36976563 8.36828125 -3.11453125 7.4865625 -2.8515625 6.578125 C-2.0790066 4.23919428 -1.16374324 2.16557438 0 0 Z " fill="#1B1D1D" transform="translate(255,140)"/>
<path d="M0 0 C7 0 7 0 8.9375 1.1875 C10.37794659 3.64473241 10.4305182 5.20163168 10 8 C7 10 7 10 4 10 C4 11.32 4 12.64 4 14 C2.68 14 1.36 14 0 14 C0 9.38 0 4.76 0 0 Z " fill="#303434" transform="translate(267,140)"/>
<path d="M0 0 C2.97 0 5.94 0 9 0 C8.67 2.97 8.34 5.94 8 9 C6.68 9 5.36 9 4 9 C4 9.66 4 10.32 4 11 C5.65 11 7.3 11 9 11 C9 11.99 9 12.98 9 14 C6.03 14 3.06 14 0 14 C0 9.38 0 4.76 0 0 Z " fill="#232525" transform="translate(70,140)"/>
<path d="M0 0 C2.97 0 5.94 0 9 0 C9 1.32 9 2.64 9 4 C7.35 4 5.7 4 4 4 C4 4.66 4 5.32 4 6 C5.65 6 7.3 6 9 6 C9 6.99 9 7.98 9 9 C7.35 9 5.7 9 4 9 C4 9.66 4 10.32 4 11 C5.65 11 7.3 11 9 11 C9 11.99 9 12.98 9 14 C6.03 14 3.06 14 0 14 C0 9.38 0 4.76 0 0 Z " fill="#232626" transform="translate(158,140)"/>
<path d="M0 0 C2.9375 0.8125 2.9375 0.8125 4.9375 3.8125 C4.38194444 9.36805556 4.38194444 9.36805556 2.9375 10.8125 C-3.24795455 11.27068182 -3.24795455 11.27068182 -6.0625 9.6875 C-7.60547074 6.79442987 -6.97506088 4.87609725 -6.0625 1.8125 C-3.0625 -0.1875 -3.0625 -0.1875 0 0 Z " fill="#AECBD8" transform="translate(176.0625,106.1875)"/>
<path d="M0 0 C7 0 7 0 9 1.1875 C10 3 10 3 9.8125 5.5625 C9 8 9 8 7 10 C6.01 10 5.02 10 4 10 C4 11.32 4 12.64 4 14 C2.68 14 1.36 14 0 14 C0 9.38 0 4.76 0 0 Z " fill="#2A2E2E" transform="translate(282,140)"/>
<path d="M0 0 C0.84783051 -0.00960754 1.69566101 -0.01921509 2.56918335 -0.02911377 C3.48688507 -0.03336365 4.40458679 -0.03761353 5.35009766 -0.04199219 C6.76326767 -0.0505423 6.76326767 -0.0505423 8.20498657 -0.05926514 C10.20061111 -0.06872102 12.1962513 -0.07525145 14.19189453 -0.07910156 C17.24490609 -0.08880599 20.29724422 -0.11982334 23.35009766 -0.15136719 C25.28759365 -0.15789729 27.22509447 -0.16314773 29.16259766 -0.16699219 C30.07625092 -0.17933899 30.98990417 -0.19168579 31.9312439 -0.20440674 C38.3005865 -0.18202734 38.3005865 -0.18202734 41.49707031 1.68164062 C41.95645996 2.16987305 42.41584961 2.65810547 42.88916016 3.16113281 C42.55916016 3.82113281 42.22916016 4.48113281 41.88916016 5.16113281 C40.89916016 4.50113281 39.90916016 3.84113281 38.88916016 3.16113281 C36.88005813 2.85966255 36.88005813 2.85966255 34.66479492 2.90234375 C33.39316246 2.89288727 33.39316246 2.89288727 32.09584045 2.88323975 C31.18330002 2.88728821 30.27075958 2.89133667 29.33056641 2.89550781 C28.38986801 2.89359436 27.44916962 2.89168091 26.47996521 2.88970947 C24.49030286 2.88834838 22.50063162 2.89203954 20.51098633 2.90039062 C17.46691896 2.91107923 14.42344336 2.90049888 11.37939453 2.88769531 C9.44645052 2.88901715 7.51350688 2.89158006 5.58056641 2.89550781 C4.6700502 2.89145935 3.759534 2.88741089 2.82142639 2.88323975 C1.97051926 2.88954407 1.11961212 2.89584839 0.24291992 2.90234375 C-0.5030394 2.90393494 -1.24899872 2.90552612 -2.01756287 2.90716553 C-4.40095898 3.19633158 -6.03671436 3.98016764 -8.11083984 5.16113281 C-6.12413203 0.76199408 -4.75567113 0.04344717 0 0 Z " fill="#CCDDDC" transform="translate(141.11083984375,89.8388671875)"/>
<path d="M0 0 C6 0 6 0 9 2 C9.29296875 4.3828125 9.29296875 4.3828125 9.1875 7.125 C9.16042969 8.03507813 9.13335937 8.94515625 9.10546875 9.8828125 C9.07066406 10.58148438 9.03585938 11.28015625 9 12 C8.01 12 7.02 12 6 12 C6 11.34 6 10.68 6 10 C5.01 10 4.02 10 3 10 C3 10.66 3 11.32 3 12 C2.01 12 1.02 12 0 12 C0 8.04 0 4.08 0 0 Z " fill="#181A1A" transform="translate(200,162)"/>
<path d="M0 0 C0.99 0 1.98 0 3 0 C5.1875 2.5 5.1875 2.5 7 5 C7.33 3.35 7.66 1.7 8 0 C8.99 0 9.98 0 11 0 C11 3.96 11 7.92 11 12 C6.70574125 10.92643531 6.25259529 10.4915227 4 7 C3.67 8.65 3.34 10.3 3 12 C2.01 12 1.02 12 0 12 C0 8.04 0 4.08 0 0 Z " fill="#1F2222" transform="translate(150,162)"/>
<path d="M0 0 C0.78375 0.04125 1.5675 0.0825 2.375 0.125 C3.035 1.445 3.695 2.765 4.375 4.125 C2.725 4.455 1.075 4.785 -0.625 5.125 C1.355 6.115 3.335 7.105 5.375 8.125 C4.5 13 4.5 13 3.375 14.125 C-2.15441176 14.36029412 -2.15441176 14.36029412 -4.625 13.125 C-4.625 12.135 -4.625 11.145 -4.625 10.125 C-1.655 10.62 -1.655 10.62 1.375 11.125 C1.375 10.465 1.375 9.805 1.375 9.125 C0.570625 8.898125 -0.23375 8.67125 -1.0625 8.4375 C-3.625 7.125 -3.625 7.125 -4.5625 4.625 C-4.583125 3.8 -4.60375 2.975 -4.625 2.125 C-2.625 0.125 -2.625 0.125 0 0 Z " fill="#171919" transform="translate(96.625,139.875)"/>
<path d="M0 0 C0.33 0 0.66 0 1 0 C1 8.91 1 17.82 1 27 C0.67 27 0.34 27 0 27 C-0.95261487 22.23692563 -1.08333357 17.8333472 -1 13 C-3.97 13 -6.94 13 -10 13 C-10 11.02 -10 9.04 -10 7 C-7.03 7.33 -4.06 7.66 -1 8 C-0.67 5.36 -0.34 2.72 0 0 Z " fill="#A7B4B3" transform="translate(129,92)"/>
<path d="M0 0 C3.125 0.375 3.125 0.375 6 1 C5.67 2.32 5.34 3.64 5 5 C4.01 5 3.02 5 2 5 C2.825 5.391875 3.65 5.78375 4.5 6.1875 C5.325 6.785625 6.15 7.38375 7 8 C7.3125 10.6875 7.3125 10.6875 7 13 C4.21136993 14.39431504 2.07921132 14.25660094 -1 14 C-1.66 13.01 -2.32 12.02 -3 11 C0.01031744 10.06576355 0.86650268 9.95550089 4 11 C4 10.34 4 9.68 4 9 C3.195625 8.855625 2.39125 8.71125 1.5625 8.5625 C-1 8 -1 8 -2 7 C-2.1875 4.5625 -2.1875 4.5625 -2 2 C-1.34 1.34 -0.68 0.68 0 0 Z " fill="#121414" transform="translate(174,140)"/>
<path d="M0 0 C0.99 0 1.98 0 3 0 C3.33 2.97 3.66 5.94 4 9 C4.99 9 5.98 9 7 9 C7.33 6.03 7.66 3.06 8 0 C8.99 0 9.98 0 11 0 C11.05416188 1.60379341 11.09286638 3.20811406 11.125 4.8125 C11.14820312 5.70582031 11.17140625 6.59914062 11.1953125 7.51953125 C11 10 11 10 9 13 C5.5 13.375 5.5 13.375 2 13 C-0.20914 9.68629 -0.22481553 8.6553979 -0.125 4.8125 C-0.10695313 3.91144531 -0.08890625 3.01039063 -0.0703125 2.08203125 C-0.04710938 1.39496094 -0.02390625 0.70789063 0 0 Z " fill="#0B0C0C" transform="translate(106,141)"/>
<path d="M0 0 C0.99 0 1.98 0 3 0 C3 1.65 3 3.3 3 5 C4.32 5 5.64 5 7 5 C7 3.35 7 1.7 7 0 C7.99 0 8.98 0 10 0 C10 3.96 10 7.92 10 12 C9.01 12 8.02 12 7 12 C7 10.68 7 9.36 7 8 C5.68 8 4.36 8 3 8 C3 9.32 3 10.64 3 12 C2.01 12 1.02 12 0 12 C0 8.04 0 4.08 0 0 Z " fill="#282C2C" transform="translate(172,162)"/>
<path d="M0 0 C0.99 0 1.98 0 3 0 C3.061875 1.19625 3.12375 2.3925 3.1875 3.625 C3.74912287 8.40730383 5.68994551 10.60507231 9 14 C4.05 14 -0.9 14 -6 14 C-5.195625 12.989375 -4.39125 11.97875 -3.5625 10.9375 C-0.89452981 7.24454691 -0.27589129 4.50622444 0 0 Z " fill="#D2E4E3" transform="translate(157,73)"/>
<path d="M0 0 C0.99 0 1.98 0 3 0 C3.66 1.65 4.32 3.3 5 5 C5.433125 4.175 5.86625 3.35 6.3125 2.5 C6.869375 1.675 7.42625 0.85 8 0 C8.99 0 9.98 0 11 0 C10.71517632 1.41805831 10.42181856 2.83440379 10.125 4.25 C9.96257813 5.03890625 9.80015625 5.8278125 9.6328125 6.640625 C9.00849925 8.96831144 8.15161458 10.89031952 7 13 C5.68 13 4.36 13 3 13 C2.49487756 11.39743892 1.99608373 9.79288208 1.5 8.1875 C1.2215625 7.29417969 0.943125 6.40085938 0.65625 5.48046875 C0 3 0 3 0 0 Z " fill="#0F1010" transform="translate(45,141)"/>
<path d="M0 0 C0.99 0 1.98 0 3 0 C4.65 3.96 6.3 7.92 8 12 C5.78645833 11.70703125 3.57291667 11.4140625 1.359375 11.12109375 C-1.30429051 10.86927936 -1.30429051 10.86927936 -5 12 C-3.35 8.04 -1.7 4.08 0 0 Z " fill="#292C2C" transform="translate(138,162)"/>
<path d="M0 0 C3.3 0 6.6 0 10 0 C10 1.32 10 2.64 10 4 C9.01 4 8.02 4 7 4 C7 7.3 7 10.6 7 14 C5.68 14 4.36 14 3 14 C3 10.7 3 7.4 3 4 C2.01 4 1.02 4 0 4 C0 2.68 0 1.36 0 0 Z " fill="#2B2E2E" transform="translate(185,140)"/>
<path d="M0 0 C2.64 0 5.28 0 8 0 C8 0.99 8 1.98 8 3 C6.35 3 4.7 3 3 3 C3 3.66 3 4.32 3 5 C4.32 5 5.64 5 7 5 C7.33 7.31 7.66 9.62 8 12 C5.36 12 2.72 12 0 12 C0 8.04 0 4.08 0 0 Z " fill="#262929" transform="translate(214,162)"/>
<path d="M0 0 C0.66 1.32 1.32 2.64 2 4 C0.02 4 -1.96 4 -4 4 C-4 5.32 -4 6.64 -4 8 C-2.68 8.33 -1.36 8.66 0 9 C0 8.34 0 7.68 0 7 C-0.99 6.67 -1.98 6.34 -3 6 C-1.02 6 0.96 6 3 6 C2.67 7.65 2.34 9.3 2 11 C-4.40096618 12.32850242 -4.40096618 12.32850242 -6.9375 10.9375 C-8.47555213 8.13281671 -8.39310741 6.14485925 -8 3 C-5.87141064 -0.36093057 -3.79035926 -0.30732643 0 0 Z " fill="#222525" transform="translate(127,162)"/>
<path d="M0 0 C2.00720923 0.28674418 4.0085944 0.61866701 6 1 C5.67 1.99 5.34 2.98 5 4 C4.01 4 3.02 4 2 4 C3.65 4.99 5.3 5.98 7 7 C6.125 10.875 6.125 10.875 5 12 C3.33382885 12.04063832 1.66611905 12.042721 0 12 C-0.66 10.68 -1.32 9.36 -2 8 C-0.68 8 0.64 8 2 8 C0.68 7.34 -0.64 6.68 -2 6 C-1.125 1.125 -1.125 1.125 0 0 Z " fill="#161818" transform="translate(80,162)"/>
<path d="M0 0 C2.64 0 5.28 0 8 0 C8 0.66 8 1.32 8 2 C6.35 2 4.7 2 3 2 C3 2.66 3 3.32 3 4 C4.32 4 5.64 4 7 4 C7 4.66 7 5.32 7 6 C5.68 6 4.36 6 3 6 C3 6.66 3 7.32 3 8 C4.98 8 6.96 8 9 8 C9 8.99 9 9.98 9 11 C6.03 11 3.06 11 0 11 C0 7.37 0 3.74 0 0 Z " fill="#1C1E1E" transform="translate(187,163)"/>
<path d="M0 0 C1.32 0 2.64 0 4 0 C4 4.62 4 9.24 4 14 C2.68 14 1.36 14 0 14 C0 9.38 0 4.76 0 0 Z " fill="#2E3232" transform="translate(61,140)"/>
<path d="M0 0 C0.598125 0.226875 1.19625 0.45375 1.8125 0.6875 C2.4375 3.0625 2.4375 3.0625 2.8125 5.6875 C2.1525 6.3475 1.4925 7.0075 0.8125 7.6875 C-1.8125 7.3125 -1.8125 7.3125 -4.1875 6.6875 C-4.875 4.875 -4.875 4.875 -5.1875 2.6875 C-3.58493056 0.24147296 -2.95482043 -0.4221172 0 0 Z " fill="#D0B4B9" transform="translate(163.1875,110.3125)"/>
<path d="M0 0 C4.95 0.99 4.95 0.99 10 2 C10 2.99 10 3.98 10 5 C6.7 5.33 3.4 5.66 0 6 C0 4.02 0 2.04 0 0 Z " fill="#E6FAF9" transform="translate(119,99)"/>
<path d="M0 0 C1.2065625 0.0309375 1.2065625 0.0309375 2.4375 0.0625 C3.0625 2.4375 3.0625 2.4375 3.4375 5.0625 C2.7775 5.7225 2.1175 6.3825 1.4375 7.0625 C-0.6875 6.6875 -0.6875 6.6875 -2.5625 6.0625 C-2.94468767 4.40635343 -3.27645102 2.73792976 -3.5625 1.0625 C-2.5625 0.0625 -2.5625 0.0625 0 0 Z " fill="#DEF1F0" transform="translate(214.5625,143.9375)"/>
<path d="M0 0 C1.67542976 0.28604898 3.34385343 0.61781233 5 1 C5.625 2.875 5.625 2.875 6 5 C5.34 5.66 4.68 6.32 4 7 C1.375 6.625 1.375 6.625 -1 6 C-1.042721 4.33388095 -1.04063832 2.66617115 -1 1 C-0.67 0.67 -0.34 0.34 0 0 Z " fill="#DCEFEE" transform="translate(32,144)"/>
<path d="M0 0 C0.66 0 1.32 0 2 0 C2 2.64 2 5.28 2 8 C3.98 8 5.96 8 8 8 C8 8.99 8 9.98 8 11 C5.36 11 2.72 11 0 11 C0 7.37 0 3.74 0 0 Z " fill="#171918" transform="translate(92,163)"/>
<path d="M0 0 C0.99 0 1.98 0 3 0 C3 1.98 3 3.96 3 6 C3.99 6.33 4.98 6.66 6 7 C5.01 7 4.02 7 3 7 C3 8.65 3 10.3 3 12 C2.01 12 1.02 12 0 12 C0 8.04 0 4.08 0 0 Z " fill="#232626" transform="translate(172,162)"/>
<path d="M0 0 C0.99 0 1.98 0 3 0 C3 4.29 3 8.58 3 13 C2.01 13 1.02 13 0 13 C0 8.71 0 4.42 0 0 Z " fill="#0C0E0E" transform="translate(200,141)"/>
<path d="M0 0 C2.95562064 0.20151959 5.07037079 0.96252665 7.75 2.1875 C7.42 3.1775 7.09 4.1675 6.75 5.1875 C6.75 4.5275 6.75 3.8675 6.75 3.1875 C4.44 3.1875 2.13 3.1875 -0.25 3.1875 C-0.25 4.1775 -0.25 5.1675 -0.25 6.1875 C0.41 6.5175 1.07 6.8475 1.75 7.1875 C0.43 6.8575 -0.89 6.5275 -2.25 6.1875 C-2.63218767 4.53135343 -2.96395102 2.86292976 -3.25 1.1875 C-2.25 0.1875 -2.25 0.1875 0 0 Z " fill="#C0D0CF" transform="translate(128.25,143.8125)"/>
<path d="M0 0 C1.65 0.33 3.3 0.66 5 1 C4.67 2.65 4.34 4.3 4 6 C2.35 5.67 0.7 5.34 -1 5 C-0.67 3.35 -0.34 1.7 0 0 Z " fill="#DFF2F1" transform="translate(107,165)"/>
<path d="M0 0 C2.00720923 0.28674418 4.0085944 0.61866701 6 1 C5.67 1.99 5.34 2.98 5 4 C4.01 4.33 3.02 4.66 2 5 C1.67 5.66 1.34 6.32 1 7 C0.01 6.67 -0.98 6.34 -2 6 C-1.125 1.125 -1.125 1.125 0 0 Z " fill="#212424" transform="translate(80,162)"/>
<path d="M0 0 C5.53846154 -0.36923077 5.53846154 -0.36923077 7.875 1.5 C8.24625 1.995 8.6175 2.49 9 3 C7.6875 5 7.6875 5 6 7 C5.01 7 4.02 7 3 7 C3.061875 6.21625 3.12375 5.4325 3.1875 4.625 C3.125625 3.75875 3.06375 2.8925 3 2 C2.01 1.34 1.02 0.68 0 0 Z " fill="#768180" transform="translate(200,162)"/>
<path d="M0 0 C5.75 0.75 5.75 0.75 8 3 C8.125 6.125 8.125 6.125 8 9 C7.67 8.34 7.34 7.68 7 7 C6.34 7 5.68 7 5 7 C4.67 6.01 4.34 5.02 4 4 C3.01 3.34 2.02 2.68 1 2 C0.67 1.34 0.34 0.68 0 0 Z " fill="#222524" transform="translate(107,162)"/>
<path d="M0 0 C5.875 0.875 5.875 0.875 7 2 C7.04063832 3.66617115 7.042721 5.33388095 7 7 C6.01 7.495 6.01 7.495 5 8 C4.67 6.68 4.34 5.36 4 4 C2.35 3.67 0.7 3.34 -1 3 C-0.67 2.01 -0.34 1.02 0 0 Z " fill="#D7EBEB" transform="translate(173,106)"/>
<path d="M0 0 C1.98 0 3.96 0 6 0 C5.67 1.65 5.34 3.3 5 5 C3.35 5.33 1.7 5.66 0 6 C0 4 0 4 1.5 2.375 C1.995 1.92125 2.49 1.4675 3 1 C2.01 0.67 1.02 0.34 0 0 Z " fill="#0E0F0F" transform="translate(124,168)"/>
<path d="M0 0 C0.433125 0.61875 0.86625 1.2375 1.3125 1.875 C2.99740483 4.2197245 2.99740483 4.2197245 6 6 C5.34 6 4.68 6 4 6 C4 6.66 4 7.32 4 8 C2.0625 7.3125 2.0625 7.3125 0 6 C-0.8125 3.4375 -0.8125 3.4375 -1 1 C-0.67 0.67 -0.34 0.34 0 0 Z " fill="#181B1A" transform="translate(120,166)"/>
<path d="M0 0 C0.3403125 0.928125 0.3403125 0.928125 0.6875 1.875 C2.37929835 4.61410209 3.99244161 5.05024472 7 6 C7 6.33 7 6.66 7 7 C4.125 7.125 4.125 7.125 1 7 C0.34 6.34 -0.32 5.68 -1 5 C-0.625 2.375 -0.625 2.375 0 0 Z " fill="#E5F9F9" transform="translate(171,110)"/>
<path d="M0 0 C2.31 0 4.62 0 7 0 C6.01 0.66 5.02 1.32 4 2 C4 2.66 4 3.32 4 4 C2.35 3.67 0.7 3.34 -1 3 C-0.67 2.01 -0.34 1.02 0 0 Z " fill="#B4C4C3" transform="translate(123,167)"/>
<path d="M0 0 C1.2065625 0.0309375 1.2065625 0.0309375 2.4375 0.0625 C1.7259375 0.7121875 1.7259375 0.7121875 1 1.375 C-0.79936957 3.08559613 -0.79936957 3.08559613 -1.5625 6.0625 C-2.2225 6.0625 -2.8825 6.0625 -3.5625 6.0625 C-3.605221 4.39638095 -3.60313832 2.72867115 -3.5625 1.0625 C-2.5625 0.0625 -2.5625 0.0625 0 0 Z " fill="#0B0C0C" transform="translate(107.5625,162.9375)"/>
<path d="M0 0 C0.66 0.33 1.32 0.66 2 1 C1.67 2.65 1.34 4.3 1 6 C1.66 6.33 2.32 6.66 3 7 C1.68 6.67 0.36 6.34 -1 6 C-1.625 4.125 -1.625 4.125 -2 2 C-1.34 1.34 -0.68 0.68 0 0 Z " fill="#D8EAE9" transform="translate(145,144)"/>
</svg>
